<svg version="1.2" xmlns="http://www.w3.org/2000/svg" viewBox="0 0 574 574" width="574" height="574">
	<style>
		.s0 { fill: #fff8fa } 
		.s1 { fill: #e11d48 } 
		.s2 { fill: #282828 } 
	</style>
	<path id="Shape 1" fill-rule="evenodd" class="s0" d="m286.5 565c-154.01 0-278.5-124.49-278.5-278.5 0-154.01 124.49-278.5 278.5-278.5 154.01 0 278.5 124.49 278.5 278.5 0 154.01-124.49 278.5-278.5 278.5z"/>
	<path class="s1" d="m294.91 246.9v6.68h-34.47v-6.68q0.01-10.91-2.19-17.52c-1.51-4.41-4.68-6.59-9.45-6.59-3.9 0-7.73 1.36-11.43 4.05q-5.54 4.1-10.27 9.7-4.75 5.61-8.49 11.49-3.7 5.91-6.26 9.83l-82.24 128.14h-41.11l82.25-128.14c7.02-11.03 13.66-20.92 19.88-29.61 6.17-8.69 12.5-16.01 18.87-22.02 6.4-5.99 13.24-10.5 20.57-13.59 7.34-3.08 15.71-4.64 25.17-4.64q17.48 0 28.32 15.44 10.84 15.42 10.85 43.46z"/>
	<path fill-rule="evenodd" class="s2" d="m278.57 296.84c-9.53 0-17.24-7.7-17.24-17.23 0-9.53 7.71-17.23 17.24-17.23 9.53 0 17.23 7.7 17.23 17.23 0 9.53-7.7 17.23-17.23 17.23z"/>
	<path class="s1" d="m294.91 338.26v47.74h-34.47v-86.35c19.03 0 34.47 17.27 34.47 38.61z"/>
	<path class="s1" d="m484.26 325.32c-0.2-7.64-1.92-15.05-5.21-22.42q-4.91-10.96-15.07-19.72c7.87-9.38 12.3-19.59 13.22-30.67q1.42-16.65-5.19-30.99-6.64-14.36-20.28-23.94-13.66-9.59-32.27-9.58h-105.3c0 19.03 15.4 34.47 34.43 34.47h72.43c5.15 0 9.43 1.1 12.86 3.41 3.45 2.3 5.99 5.2 7.73 8.74 1.72 3.52 2.56 7.29 2.56 11.43 0 4.08-0.84 7.91-2.56 11.43-1.74 3.5-4.28 6.44-7.73 8.7q-5.14 3.46-12.86 3.45h-47.73c-8.21 0-15.87 1.51-23.02 4.57q-10.72 4.56-18.7 12.57c-5.37 5.34-9.52 11.56-12.59 18.71-3.05 7.14-4.57 14.85-4.57 23.03v57.22h111.82c9 0 17.14-1.73 24.38-5.21 7.24-3.48 13.37-8.02 18.43-13.66 5.08-5.62 8.91-12.08 11.57-19.28 2.63-7.24 3.83-14.68 3.65-22.26zm-36.45 13.79q-2.62 5.29-7.85 8.74c-3.54 2.3-7.86 3.41-13.02 3.41h-78.06v-23.71c0-6.46 2.27-12.02 6.75-16.58q6.7-6.86 16.72-6.87h54.59c5.16 0 9.48 1.14 13.02 3.44 3.5 2.27 6.11 5.21 7.85 8.71 1.71 3.52 2.54 7.35 2.54 11.43q0.01 6.2-2.54 11.43z"/>
</svg>