<svg version="1.2" xmlns="http://www.w3.org/2000/svg" viewBox="0 0 574 574" width="574" height="574">
	<style>
		.s0 { fill: #ffffff } 
		.s1 { fill: #fafafa } 
	</style>
	<path class="s0" d="m295.87 242.04v7.49h-38.65v-7.49q0.01-12.23-2.46-19.65c-1.69-4.94-5.25-7.38-10.59-7.38-4.38 0-8.67 1.53-12.82 4.54q-6.21 4.6-11.51 10.88-5.32 6.28-9.52 12.87-4.15 6.63-7.01 11.02l-92.22 143.68h-46.09l92.22-143.68c7.87-12.36 15.31-23.44 22.29-33.19 6.91-9.74 14.01-17.96 21.15-24.69 7.18-6.71 14.85-11.78 23.06-15.23 8.24-3.46 17.62-5.21 28.24-5.21q19.59 0 31.74 17.31 12.16 17.29 12.17 48.73z"/>
	<path class="s0" d="m277.54 298.04c10.67 0 19.32-8.66 19.32-19.33 0-10.67-8.65-19.32-19.32-19.32-10.67 0-19.32 8.65-19.32 19.32 0 10.67 8.65 19.33 19.32 19.33z"/>
	<path class="s1" d="m295.87 344.47v53.53h-38.65v-96.81c21.34 0 38.65 19.36 38.65 43.28z"/>
	<path class="s0" d="m508.17 329.97c-0.23-8.57-2.16-16.89-5.84-25.14-3.68-8.2-9.29-15.56-16.9-22.11 8.83-10.52 13.79-21.97 14.83-34.4q1.59-18.66-5.82-34.73-7.45-16.11-22.74-26.85-15.32-10.76-36.18-10.74h-118.07c0 21.34 17.27 38.64 38.6 38.64h81.22c5.77 0 10.57 1.24 14.42 3.83 3.86 2.58 6.71 5.83 8.66 9.8 1.93 3.95 2.87 8.18 2.87 12.81 0 4.58-0.94 8.87-2.87 12.82-1.95 3.92-4.8 7.22-8.66 9.76q-5.77 3.87-14.42 3.86h-53.52c-9.21 0-17.79 1.69-25.81 5.13-8.01 3.42-15.01 8.1-20.97 14.1-6.02 5.97-10.67 12.95-14.11 20.96-3.42 8.02-5.13 16.66-5.13 25.84v64.14h125.37c10.09 0 19.22-1.93 27.34-5.83 8.11-3.91 14.99-8.99 20.66-15.32 5.7-6.3 9.99-13.54 12.98-21.62 2.95-8.11 4.29-16.45 4.09-24.95zm-40.86 15.45q-2.94 5.94-8.81 9.81c-3.97 2.58-8.81 3.82-14.6 3.82h-87.52v-26.58c0-7.24 2.54-13.49 7.56-18.59q7.52-7.7 18.76-7.71h61.2c5.79 0 10.63 1.28 14.6 3.86 3.93 2.55 6.85 5.84 8.81 9.77 1.91 3.94 2.84 8.23 2.84 12.81q0.01 6.96-2.84 12.81z"/>
</svg>