<svg width="574" height="574" viewBox="0 0 574 574" fill="none" xmlns="http://www.w3.org/2000/svg">
<path d="M295.868 242.041V249.525H257.224V242.041C257.224 233.885 256.41 227.336 254.763 222.393C253.075 217.451 249.515 215.01 244.166 215.01C239.793 215.01 235.502 216.536 231.353 219.546C227.203 222.617 223.38 226.237 219.841 230.427C216.281 234.617 213.129 238.908 210.322 243.302C207.556 247.715 205.217 251.397 203.305 254.325L111.088 398H65L157.217 254.325C165.088 241.959 172.532 230.875 179.508 221.132C186.424 211.39 193.522 203.173 200.661 196.441C207.841 189.729 215.509 184.664 223.725 181.207C231.963 177.749 241.339 176 251.956 176C265.014 176 275.61 181.776 283.705 193.309C291.8 204.841 295.868 221.071 295.868 242.041Z" fill="#E11D48"/>
<path d="M277.543 298.035C288.214 298.035 296.865 289.384 296.865 278.713C296.865 268.041 288.214 259.391 277.543 259.391C266.871 259.391 258.221 268.041 258.221 278.713C258.221 289.384 266.871 298.035 277.543 298.035Z" fill="#282828"/>
<path d="M295.867 344.469V398.001H257.223V301.188C278.558 301.188 295.867 320.55 295.867 344.469Z" fill="#E11D48"/>
<path d="M508.168 329.966C507.944 321.403 506.012 313.085 502.331 304.827C498.649 296.631 493.036 289.268 485.429 282.719C494.256 272.203 499.219 260.753 500.256 248.325C501.314 235.878 499.382 224.305 494.439 213.586C489.476 202.847 481.89 193.898 471.7 186.739C461.49 179.559 449.429 176 435.517 176H317.449C317.449 197.336 334.717 214.644 356.053 214.644H437.266C443.042 214.644 447.842 215.885 451.687 218.468C455.551 221.051 458.398 224.305 460.351 228.271C462.283 232.217 463.219 236.447 463.219 241.085C463.219 245.661 462.283 249.953 460.351 253.898C458.398 257.824 455.551 261.119 451.687 263.661C447.842 266.244 443.042 267.525 437.266 267.525H383.754C374.541 267.525 365.958 269.214 357.944 272.651C349.931 276.068 342.934 280.746 336.975 286.746C330.954 292.725 326.297 299.702 322.859 307.715C319.442 315.729 317.734 324.373 317.734 333.546V397.695H443.103C453.192 397.695 462.324 395.763 470.439 391.858C478.554 387.953 485.429 382.868 491.104 376.542C496.798 370.237 501.09 362.997 504.08 354.922C507.029 346.807 508.371 338.468 508.168 329.966ZM467.307 345.424C465.354 349.39 462.405 352.644 458.5 355.227C454.534 357.81 449.693 359.051 443.897 359.051H356.378V332.468C356.378 325.227 358.92 318.983 363.944 313.878C368.948 308.753 375.212 306.17 382.697 306.17H443.897C449.693 306.17 454.534 307.451 458.5 310.034C462.426 312.576 465.354 315.871 467.307 319.797C469.219 323.742 470.154 328.034 470.154 332.61C470.154 337.247 469.219 341.519 467.307 345.424Z" fill="#E11D48"/>
</svg>
